# AST/ASF file generated using VICON BodyLanguage
# -----------------------------------------------
:version 1.10
:name VICON
:units
  mass 1.0
  length 0.45
  angle deg
:documentation
   .ast/.asf automatically generated from VICON data using
   VICON BodyBuilder and BodyLanguage model FoxedUp or BRILLIANT.MOD
:root
   order TX TY TZ RX RY RZ
   axis XYZ
   position 0 0 0  
   orientation 0 0 0 
:bonedata
  begin
     id 1 
     name lhipjoint
     direction 0.643822 -0.745931 0.170529 
     length 2.62041 
     axis 0 0 0  XYZ
  end
  begin
     id 2 
     name lfemur
     direction 0.34202 -0.939693 0  
     length 7.92179  
     axis 0 0 20  XYZ
    dof rx ry rz
    limits (-160.0 20.0)
           (-70.0 70.0)
           (-60.0 70.0)
  end
  begin
     id 3 
     name ltibia
     direction 0.34202 -0.939693 0   
     length 8.16326   
     axis 0 0 20   XYZ
    dof rx
    limits (-10.0 170.0)
  end
  begin
     id 4 
     name lfoot
     direction 0.0837341 -0.230058 0.969568   
     length 1.94455   
     axis -90 7.62852e-016 20   XYZ
    dof rx rz
    limits (-45.0 90.0)
           (-70.0 20.0)
  end
  begin
     id 5 
     name ltoes
     direction 1.5356e-011 -4.21695e-011 1   
     length 0.978804   
     axis -90 7.62852e-016 20   XYZ
    dof rx
    limits (-90.0 20.0)
  end
  begin
     id 6 
     name rhipjoint
     direction -0.656883 -0.73503 0.168037   
     length 2.65927  
     axis 0 0 0  XYZ 
  end
  begin
     id 7 
     name rfemur
     direction -0.34202 -0.939693 0   
     length 7.58746   
     axis 0 0 -20   XYZ
    dof rx ry rz
    limits (-160.0 20.0)
           (-70.0 70.0)
           (-70.0 60.0)
  end
  begin
     id 8 
     name rtibia
     direction -0.342117 -0.939657 0   
     length 8.27303   
     axis 0 0 -20   XYZ
    dof rx
    limits (-10.0 170.0)
 end
 begin
     id 9 
     name rfoot
     direction -0.0685862 -0.188439 0.979687   
     length 2.13088  
     axis -90 -7.62852e-016 -20   XYZ
    dof rx rz
    limits (-45.0 90.0)
           (-20.0 70.0)
  end
  begin
     id 10 
     name rtoes
     direction -1.53538e-011 -4.21514e-011 1   
     length 1.07326   
     axis -90 -7.62852e-016 -20   XYZ
    dof rx
    limits (-90.0 20.0)
  end
  begin
     id 11 
     name lowerback
     direction -0.0358974 0.997216 0.065354   
     length 1.87174   
     axis 0 0 0   XYZ
    dof rx ry rz
    limits (-20.0 45.0)
           (-30.0 30.0)
           (-30.0 30.0)
  end
  begin
     id 12 
     name upperback
     direction 0.0202028 0.998565 0.0495864   
     length 1.8684   
     axis 0 0 0   XYZ
    dof rx ry rz
    limits (-20.0 45.0)
           (-30.0 30.0)
           (-30.0 30.0)
  end
  begin
     id 13 
     name thorax
     direction 0.0366367 0.999163 0.0182199   
     length 1.87747   
     axis 0 0 0   XYZ
    dof rx ry rz
    limits (-20.0 45.0)
           (-30.0 30.0)
           (-30.0 30.0)
  end
  begin
     id 14 
     name lowerneck
     direction 0.0284381 0.999578 -0.00598196   
     length 1.84583   
     axis 0 0 0   XYZ
    dof rx ry rz
    limits (-20.0 45.0)
           (-30.0 30.0)
           (-30.0 30.0)
  end
  begin
     id 15 
     name upperneck
     direction -0.0888142 0.993333 -0.0734973   
     length 1.84467   
     axis 0 0 0   XYZ
    dof rx ry rz
    limits (-20.0 45.0)
           (-30.0 30.0)
           (-30.0 30.0)
  end
  begin
     id 16
     name head
     direction -0.0296474 0.999102 -0.0302696  
     length 1.86566  
     axis 0 0 0   XYZ
    dof rx ry rz
    limits (-20.0 45.0)
           (-30.0 30.0)
           (-30.0 30.0)
  end
  begin
     id 17 
     name lclavicle
     direction 0.933925 0.35714 -0.0153523  
     length 3.93442  
     axis 0 0 0   XYZ
    dof ry rz
    limits (-20.0 10.0)
           (0.0 20.0)
  end
  begin
     id 18 
     name lhumerus
     direction 1 -4.48967e-011 2.12044e-027   
     length 5.78174   
     axis 180 -30 -90   XYZ
    dof rx ry rz
    limits (-60.0 90.0)
           (-90.0 90.0)
           (-90.0 90.0)
  end
  begin
     id 19
     name lradius
     direction 1 -4.48972e-011 6.45701e-027   
     length 3.53992   
     axis 180 -30 -90   XYZ
    dof rx
    limits (-10.0 170.0)
  end
  begin
     id 20
     name lwrist
     direction 1 -4.48981e-011 1.70244e-026   
     length 1.76996   
     axis -1.1226e-014 90 90   XYZ
    dof ry
    limits (-180.0 0.0)
 end
  begin
     id 21 
     name lhand
     direction 1 -4.4879e-011 3.40615e-026   
     length 0.550243   
     axis -2.17265e-014 90 90   XYZ
    dof rx rz
    limits (-90.0 90.0)
           (-45.0 45.0)
  end
  begin
     id 22 
     name lfingers
     direction 1 -4.49029e-011 6.80911e-026   
     length 0.44362   
     axis -4.34526e-014 90 90   XYZ
    dof rx
    limits (0.0 90.0)
  end
  begin
     id 23
     name lthumb
     direction 0.707107 -6.34923e-011 0.707107   
     length 0.636952   
     axis -90 45 -1.62303e-014   XYZ
    dof rx rz
    limits (-45.0 45.0)
           (-45.0 45.0)
  end
  begin
     id 24 
     name rclavicle
     direction -0.950832 0.305106 0.0531883   
     length 3.96125  
     axis 0 0 0   XYZ 
    dof ry rz
    limits (-10.0 20.0)
           (-20.0 0.0)
  end
  begin
     id 25 
     name rhumerus
     direction -1 -4.48961e-011 -6.07392e-030  
     length 5.79352   
     axis 180 30 90   XYZ
    dof rx ry rz
    limits (-90.0 60.0)
           (-90.0 90.0)
           (-90.0 90.0)
  end
  begin
     id 26 
     name rradius
     direction -1 -4.48964e-011 5.97548e-027   
     length 3.37081   
     axis 180 30 90   XYZ
    dof rx
    limits (-10.0 170.0)
  end
  begin
     id 27 
     name rwrist
     direction -1 -4.49021e-011 1.7023e-026   
     length 1.68541   
     axis -1.1226e-014 -90 -90   XYZ
    dof ry
    limits (-180.0 0.0)
  end
  begin
     id 28
     name rhand
     direction -1 -4.48867e-011 3.40563e-026   
     length 0.679827   
     axis -2.17265e-014 -90 -90   XYZ
    dof rx rz
    limits (-90.0 90.0)
           (-45.0 45.0)
  end
  begin
     id 29
     name rfingers
     direction -1 -4.49024e-011 6.80917e-026   
     length 0.548094   
     axis -4.34526e-014 -90 -90   XYZ
    dof rx
    limits (0.0 90.0)
  end
  begin
     id 30
     name rthumb
     direction -0.707107 -6.3488e-011 0.707107   
     length 0.786956   
     axis -90 -45 1.62303e-014   XYZ
    dof rx rz
    limits (-45.0 45.0)
           (-45.0 45.0)
  end
:hierarchy
  begin
    root lhipjoint rhipjoint lowerback
    lhipjoint lfemur
    lfemur ltibia
    ltibia lfoot
    lfoot ltoes
    rhipjoint rfemur
    rfemur rtibia
    rtibia rfoot
    rfoot rtoes
    lowerback upperback
    upperback thorax
    thorax lowerneck lclavicle rclavicle
    lowerneck upperneck
    upperneck head
    lclavicle lhumerus
    lhumerus lradius
    lradius lwrist
    lwrist lhand lthumb
    lhand lfingers
    rclavicle rhumerus
    rhumerus rradius
    rradius rwrist
    rwrist rhand rthumb
    rhand rfingers
  end

#!OML:ASF H:\Terrain\Patient Classification 1\PaulMetrics\Match1Take2\PaulMetrics.ASF
:FULLY-SPECIFIED
:DEGREES
482
root -5.93509 17.9782 -6.17114 14.3006 22.8157 1.28319
lowerback -6.78945 -1.74647 -6.73683
upperback -5.9226 -1.95932 1.87293
thorax -2.07541 -0.711433 5.63761
lowerneck -2.37891 11.0118 7.42864
upperneck 7.3469 15.4844 -11.6687
head 4.0764 7.48787 -3.89846
rclavicle -6.66239e-014 -9.14409e-015
rhumerus -57.3021 16.9135 -89.9871
rradius 45.1018
rwrist -9.94701
rhand -11.6005 -32.121
rfingers 7.12502
rthumb 14.442 -61.5985
lclavicle -6.66239e-014 -9.14409e-015
lhumerus -46.4366 -25.0522 88.6278
lradius 85.7437
lwrist 8.03619
lhand -20.9528 -10.734
lfingers 7.12502
lthumb 5.41987 19.1767
rfemur -36.704 8.72551 10.7697
rtibia 7.1147
rfoot -6.54366 -21.24
rtoes -12.4315
lfemur -2.43271 -4.50379 -26.989
ltibia 18.7891
lfoot -16.9293 -7.47489
ltoes -17.3938
483
root -5.90963 17.9692 -5.99224 14.1361 23.1663 1.31555
lowerback -6.64487 -1.70056 -6.72253
upperback -5.91338 -1.90861 1.8409
thorax -2.15449 -0.684123 5.60224
lowerneck -2.62212 10.8951 7.43934
upperneck 7.66025 15.3448 -11.6444
head 4.19653 7.40401 -3.88308
rclavicle -4.39376e-014 -5.56597e-015
rhumerus -57.2997 16.6828 -89.8199
rradius 45.0286
rwrist -9.93909
rhand -11.6642 -32.3416
rfingers 7.12502
rthumb 14.3806 -61.8234
lclavicle -4.39376e-014 -5.56597e-015
lhumerus -46.7525 -25.1058 88.8349
lradius 85.4624
lwrist 7.65742
lhand -20.7313 -10.7831
lfingers 7.12502
lthumb 5.63381 19.122
rfemur -37.8114 8.69137 11.1275
rtibia 10.5442
rfoot -5.9676 -21.6666
rtoes -15.4848
lfemur -1.55248 -4.63153 -26.7808
ltibia 18.5373
lfoot -15.9359 -7.76623
ltoes -15.675
484
root -5.88294 17.9874 -5.81052 14.0413 23.5991 1.29859
lowerback -6.70802 -1.74086 -6.69625
upperback -5.84761 -1.95709 1.87057
thorax -2.0427 -0.714883 5.61288
lowerneck -2.88998 10.8612 7.42568
upperneck 7.87255 15.3053 -11.6093
head 4.2976 7.3705 -3.85352
rclavicle -4.49875e-014 -7.35503e-015
rhumerus -57.1589 16.5216 -89.6214
rradius 44.9664
rwrist -9.77497
rhand -11.5799 -32.4457
rfingers 7.12502
rthumb 14.4618 -61.9218
lclavicle -4.49875e-014 -7.35503e-015
lhumerus -46.9806 -25.0213 88.9919
lradius 85.1548
lwrist 7.3519
lhand -20.5515 -10.5124
lfingers 7.12502
lthumb 5.80737 19.388
rfemur -38.4996 7.85009 12.0824
rtibia 13.3565
rfoot -4.23844 -20.8479
rtoes -20.5167
lfemur -0.74823 -4.633 -26.4577
ltibia 18.2053
lfoot -14.8505 -8.17178
ltoes -14.4818
485
root -5.85224 18.017 -5.62547 13.9188 24.0112 1.21955
lowerback -6.78125 -1.81254 -6.60717
upperback -5.78735 -2.0489 2.01877
thorax -1.92254 -0.767444 5.70982
lowerneck -2.72216 10.8225 7.3871
upperneck 7.66628 15.2787 -11.93
head 4.2275 7.3566 -3.95991
rclavicle 2.08227e-014 8.74653e-015
rhumerus -57.1047 16.4266 -89.2691
rradius 45.0135
rwrist -9.56504
rhand -11.6186 -32.6606
rfingers 7.12502
rthumb 14.4245 -62.1393
lclavicle 2.08227e-014 8.74653e-015
lhumerus -47.3012 -24.7519 89.2889
lradius 84.7841
lwrist 7.22295
lhand -20.6402 -10.048
lfingers 7.12502
lthumb 5.72173 19.8548
rfemur -39.0013 7.78438 12.4571
rtibia 15.6569
rfoot -2.91759 -20.4436
rtoes -19.5159
lfemur -0.0755957 -4.38017 -26.0424
ltibia 18.0657
lfoot -13.6383 -8.7119
ltoes -12.7035
486
root -5.82234 18.0291 -5.44085 13.7847 24.3508 1.28182
lowerback -6.70006 -1.85649 -6.62742
upperback -5.76155 -2.11073 2.10865
thorax -1.92807 -0.79686 5.81412
lowerneck -2.44873 10.8133 7.23599
upperneck 7.38239 15.2747 -12.0856
head 4.09692 7.3637 -4.00683
rclavicle 1.88348e-014 5.56597e-015
rhumerus -57.2295 16.5265 -89.0995
rradius 45.1323
rwrist -9.55744
rhand -11.5864 -33.0158
rfingers 7.12502
rthumb 14.4556 -62.4923
lclavicle 1.88348e-014 5.56597e-015
lhumerus -47.7889 -24.3589 89.624
lradius 84.3329
lwrist 6.97306
lhand -21.0715 -9.76222
lfingers 7.12502
lthumb 5.30527 20.1514
rfemur -39.4322 7.93536 12.4583
rtibia 17.6983
rfoot -2.28688 -20.3331
rtoes -15.2435
lfemur 0.54994 -4.21327 -25.7976
ltibia 18.189
lfoot -12.5553 -8.77558
ltoes -13.2373
487
root -5.79141 18.0294 -5.25458 13.6041 24.643 1.38778
lowerback -6.5572 -1.85247 -6.71188
upperback -5.7401 -2.11076 2.12595
thorax -1.98244 -0.792504 5.8841
lowerneck -2.35813 10.8494 7.02519
upperneck 7.29888 15.3096 -11.8946
head 4.02884 7.38831 -3.92402
rclavicle -2.2531e-014 -2.38542e-015
rhumerus -57.3886 16.5982 -89.0245
rradius 45.1652
rwrist -9.61093
rhand -11.2836 -33.0168
rfingers 7.12502
rthumb 14.7473 -62.4722
lclavicle -2.2531e-014 -2.38542e-015
lhumerus -48.212 -24.0494 89.9717
lradius 83.6968
lwrist 6.69952
lhand -20.8116 -9.69017
lfingers 7.12502
lthumb 5.5563 20.217
rfemur -39.6292 7.51441 12.7623
rtibia 19.4324
rfoot -2.37695 -19.668
rtoes -12.4351
lfemur 1.06166 -4.25086 -25.6289
ltibia 18.718
lfoot -11.6847 -8.57261
ltoes -15.6725
488
root -5.76042 18.0284 -5.06668 13.2314 24.9087 1.31033
lowerback -6.26995 -1.78678 -6.64369
upperback -5.72464 -2.04491 2.17459
thorax -2.13562 -0.755354 5.90817
lowerneck -5.32922 11.1147 5.02162
upperneck 10.5001 15.7105 -9.18116
head 5.16062 7.45035 -2.54744
rclavicle 1.62134e-014 2.66371e-014
rhumerus -57.5241 16.4253 -88.8651
rradius 45.0774
rwrist -9.70957
rhand -11.4014 -32.7813
rfingers 7.12502
rthumb 14.6338 -62.245
lclavicle 1.62134e-014 2.66371e-014
lhumerus -48.6076 -24.0053 90.4085
lradius 82.9171
lwrist 6.58028
lhand -20.414 -9.93602
lfingers 7.12502
lthumb 5.94016 19.9607
rfemur -39.4056 6.91683 13.4501
rtibia 20.7262
rfoot -2.48189 -18.8171
rtoes -11.0306
lfemur 1.38243 -4.23219 -25.2574
ltibia 19.8558
lfoot -10.6873 -8.8299
ltoes -15.8524
489
root -5.73493 18.0241 -4.88402 12.8592 25.1903 0.970816
lowerback -6.04317 -1.67836 -6.35283
upperback -5.7227 -1.92493 2.27301
thorax -2.28044 -0.697079 5.85879
lowerneck -3.33249 10.7625 6.67288
upperneck 8.90062 15.2796 -11.2853
head 4.59787 7.30937 -3.60197
rclavicle -1.0179e-013 -3.33958e-014
rhumerus -57.5673 16.0913 -88.6874
rradius 44.9584
rwrist -9.88616
rhand -11.9783 -32.5161
rfingers 7.12502
rthumb 14.0779 -62.0192
lclavicle -1.0179e-013 -3.33958e-014
lhumerus -49.0701 -24.0322 90.8415
lradius 82.1096
lwrist 6.33029
lhand -20.6905 -10.2599
lfingers 7.12502
lthumb 5.67321 19.6442
rfemur -39.2353 6.76758 14.1452
rtibia 21.8273
rfoot -1.94724 -18.168
rtoes -11.2371
lfemur 1.35639 -4.13449 -24.5797
ltibia 21.3908
lfoot -9.40191 -9.39575
ltoes -13.8831
490
root -5.70892 18.0238 -4.70798 12.6757 25.6119 0.500419
lowerback -6.02386 -1.63439 -5.89936
upperback -5.74293 -1.8812 2.44877
thorax -2.32236 -0.684051 5.78885
lowerneck -2.92043 10.5723 6.97979
upperneck 8.46945 15.035 -11.8079
head 4.43915 7.20496 -3.85693
rclavicle -2.50469e-014 3.57812e-015
rhumerus -57.5408 15.999 -88.513
rradius 44.8572
rwrist -10.1509
rhand -12.2103 -32.5821
rfingers 7.12502
rthumb 13.8543 -62.1007
lclavicle -2.50469e-014 3.57812e-015
lhumerus -49.4739 -23.8116 91.2474
lradius 81.3075
lwrist 6.00398
lhand -20.7699 -10.394
lfingers 7.12502
lthumb 5.59648 19.5121
rfemur -39.3461 6.67337 14.8366
rtibia 22.9856
rfoot -1.06004 -17.2868
rtoes -12.5925
lfemur 0.941898 -4.10709 -23.7414
ltibia 22.9862
lfoot -7.84284 -9.71735
ltoes -12.2457
491
root -5.67952 18.0284 -4.52996 12.5786 26.068 0.295064
lowerback -6.03195 -1.63488 -5.62539
upperback -5.73821 -1.88924 2.55268
thorax -2.31404 -0.69518 5.74151
lowerneck -3.06794 10.543 6.87843
upperneck 8.4943 14.9993 -11.8139
head 4.46089 7.17838 -3.83798
rclavicle -8.71671e-014 -5.56597e-015
rhumerus -57.4749 16.1286 -88.4021
rradius 44.6775
rwrist -10.4406
rhand -12.0466 -32.8045
rfingers 7.12502
rthumb 14.0121 -62.3123
lclavicle -8.71671e-014 -5.56597e-015
lhumerus -49.8251 -23.5669 91.6036
lradius 80.5822
lwrist 5.85492
lhand -20.5429 -10.1657
lfingers 7.12502
lthumb 5.81567 19.7345
rfemur -39.3747 6.31966 15.3652
rtibia 24.1423
rfoot -0.851805 -16.3811
rtoes -11.5759
lfemur 0.464779 -3.94781 -23.1291
ltibia 24.6266
lfoot -6.06528 -10.0095
ltoes -11.7396
492
root -5.64308 18.0284 -4.33915 12.5525 26.3279 0.463906
lowerback -6.17276 -1.65663 -5.77432
upperback -5.67678 -1.90391 2.57111
thorax -2.16581 -0.70414 5.84028
lowerneck -3.10149 10.5443 6.76246
upperneck 8.52488 15.0177 -11.8616
head 4.47273 7.18052 -3.83104
rclavicle 1.04362e-015 -2.78299e-015
rhumerus -57.3226 16.4648 -88.4479
rradius 44.2717
rwrist -10.7368
rhand -12.238 -32.7074
rfingers 7.12502
rthumb 13.8277 -62.2278
lclavicle 1.04362e-015 -2.78299e-015
lhumerus -50.2503 -23.1353 91.8645
lradius 79.9353
lwrist 5.5762
lhand -20.3007 -9.50303
lfingers 7.12502
lthumb 6.04953 20.3906
rfemur -39.2228 5.80056 15.6317
rtibia 25.2096
rfoot -1.09914 -15.8859
rtoes -8.66649
lfemur 0.0664753 -3.48851 -22.9069
ltibia 26.4075
lfoot -4.1723 -10.4911
ltoes -11.187
493
root -5.60155 18.0319 -4.14366 12.4363 26.5313 0.59643
lowerback -6.21587 -1.6916 -5.91418
upperback -5.66129 -1.94191 2.59715
thorax -2.11664 -0.720381 5.94419
lowerneck -3.20598 10.6234 6.39935
upperneck 8.80155 15.1247 -11.4317
head 4.52327 7.22865 -3.62877
rclavicle 1.97418e-014 -3.57812e-015
rhumerus -57.372 16.8779 -88.6583
rradius 43.9129
rwrist -10.8786
rhand -12.5884 -32.7278
rfingers 7.12502
rthumb 13.49 -62.2709
lclavicle 1.97418e-014 -3.57812e-015
lhumerus -50.5716 -22.6239 92.0575
lradius 78.9207
lwrist 5.18547
lhand -20.2046 -9.30363
lfingers 7.12502
lthumb 6.14227 20.5873
rfemur -38.9322 5.17259 16.0649
rtibia 26.3191
rfoot -1.02043 -15.4693
rtoes -9.74323
lfemur -0.283573 -2.9462 -22.6749
ltibia 28.2668
lfoot -2.37165 -10.8299
ltoes -11.5334
